<svg xmlns="http://www.w3.org/2000/svg" viewBox="0 0 512 512" fill="#007BFF">
    <path d="M256 160c-17.7 0-32-14.3-32-32s14.3-32 32-32 32 14.3 32 32-14.3 32-32 32zM160 128c-17.7 0-32-14.3-32-32S142.3 64 160 64s32 14.3 32 32-14.3 32-32 32zM352 128c-17.7 0-32-14.3-32-32s14.3-32 32-32 32 14.3 32 32-14.3 32-32 32zM109.5 256.3c-33.6-6.9-65.7 16.5-72.5 50.1S53.5 372 87 379.4c33.6 6.9 65.7-16.5 72.5-50.1s-16.5-65.7-50-72.5zM352.4 329.3c-6.9-33.6-38.9-57-72.5-50.1s-57 38.9-50.1 72.5c6.9 33.6 38.9 57 72.5 50.1s57-38.9 50.1-72.5z"/>
</svg>
