<svg xmlns="http://www.w3.org/2000/svg" viewBox="0 0 80 40">
  <path fill="currentColor" d="M78.7,28.4c-0.4-0.4-1-0.5-1.4-0.1l-2.1,1.7c-0.4,0.3-1,0.2-1.3-0.2l-1.5-2.1c-0.3-0.4-0.9-0.5-1.3-0.2l-2.1,1.5 c-0.4,0.3-1,0.2-1.3-0.2l-1.5-2.1c-0.3-0.4-0.9-0.5-1.3-0.2l-2.1,1.5c-0.4,0.3-1,0.2-1.3-0.2L61,26.1c-0.3-0.4-0.9-0.5-1.3-0.2 L57.6,27c-0.4,0.3-1,0.2-1.3-0.2l-1.5-2.1c-0.3-0.4-0.9-0.5-1.3-0.2L51.4,26c-0.4,0.3-1,0.2-1.3-0.2l-1.5-2.1 c-0.3-0.4-0.9-0.5-1.3-0.2l-2.1,1.5c-0.4,0.3-1,0.2-1.3-0.2l-1.5-2.1c-0.3-0.4-0.9-0.5-1.3-0.2l-2.1,1.5 c-0.4,0.3-1,0.2-1.3-0.2l-1.5-2.1c-0.3-0.4-0.9-0.5-1.3-0.2l-2.1,1.5c-0.4,0.3-1,0.2-1.3-0.2L26,19.8c-0.3-0.4-0.9-0.5-1.3-0.2 L22.6,21c-0.4,0.3-1,0.2-1.3-0.2l-1.5-2.1c-0.3-0.4-0.9-0.5-1.3-0.2l-2.1,1.5c-0.4,0.3-1,0.2-1.3-0.2L13,18.1 c-0.3-0.4-0.9-0.5-1.3-0.2L9.6,19.2c-0.4,0.3-1,0.2-1.3-0.2L6.8,17.2C6.5,16.8,6,16.7,5.5,17L3.4,18.5c-0.4,0.3-1,0.2-1.3-0.2 l-1.5-2.1C0.3,15.8-0.3,15.7,0,16.1c0.4,0.4,1,0.5,1.4,0.1l2.1-1.7c0.4-0.3,1-0.2,1.3,0.2l1.5,2.1c0.3,0.4,0.9,0.5,1.3,0.2 l2.1-1.5c0.4-0.3,1-0.2,1.3,0.2l1.5,2.1c0.3,0.4,0.9,0.5,1.3,0.2l2.1-1.5c0.4-0.3,1-0.2,1.3,0.2l1.5,2.1 c0.3,0.4,0.9,0.5,1.3,0.2l2.1-1.5c0.4-0.3,1-0.2,1.3,0.2l1.5,2.1c0.3,0.4,0.9,0.5,1.3,0.2l2.1-1.5c0.4-0.3,1-0.2,1.3,0.2 l1.5,2.1c0.3,0.4,0.9,0.5,1.3,0.2l2.1-1.5c0.4-0.3,1-0.2,1.3,0.2l1.5,2.1c0.3,0.4,0.9,0.5,1.3,0.2l2.1-1.5 c0.4-0.3,1-0.2,1.3,0.2l1.5,2.1c0.3,0.4,0.9,0.5,1.3,0.2l2.1-1.5c0.4-0.3,1-0.2,1.3,0.2l1.5,2.1 c0.3,0.4,0.9,0.5,1.3,0.2l2.1-1.5c0.4-0.3,1-0.2,1.3,0.2l1.5,2.1c0.3,0.4,0.9,0.5,1.3,0.2l2.1-1.5 c0.4-0.3,1-0.2,1.3,0.2L79,28.3C79.3,28.7,79.1,29.3,78.7,28.4z"/>
</svg>
